<svg id="Layer_1" data-name="Layer 1" xmlns="http://www.w3.org/2000/svg" viewBox="0 0 423.97 103.99"><rect x="6.66" y="21.81" width="414.15" height="3.63"/><rect x="6.66" y="29.01" width="105.06" height="3.63"/><path d="M11.43,5.53V18.3H7.31V5.53H2.16V1.82H16.58V5.53Z"/><path d="M32.73,12H21.92V18.3H17.8V1.82h4.12V8.1H32.73V1.82h4.12V18.3H32.73Z"/><path d="M38.75,18.3V1.82H50.47V5.53h-7.6V8.31H49v3.5H42.87v2.78h7.6V18.3Z"/><path d="M61.54,7.75h-.62V18.3H56.8V1.82h4.82l9.6,10.3h.62V1.82H76V18.3H71.3Z"/><path d="M77.85,18.3V1.82H89.58V5.53H82V8.31h6.16v3.5H82v2.78h7.61V18.3Z"/><path d="M90,1.82h4.59l3.57,13.12h1l3.25-13.12h7.75l3.73,13.12h1l3.09-13.12h4.68L118,18.3h-7.34L106.86,5.18h-1.15L102.25,18.3H94.91Z"/><path d="M127.26,6.85c0-3.49,2.78-5.36,6.37-5.36a12.62,12.62,0,0,1,5.66,1.28l-.78,3.5a10.75,10.75,0,0,0-5-1.26c-1.27,0-2.14.5-2.14,1.36,0,2.68,8.45,1.18,8.45,6.72,0,2.94-2.1,5.54-6.49,5.54a13.9,13.9,0,0,1-5.71-1.05l.17-3.77a12.9,12.9,0,0,0,5.66,1.3c1.81,0,2.27-.64,2.27-1.4C135.69,11.23,127.26,12.68,127.26,6.85Z"/><path d="M153.45,18.07a11.06,11.06,0,0,1-4.29.56A8.47,8.47,0,0,1,140.57,10c0-4.68,3.61-8.53,9-8.53a13.6,13.6,0,0,1,4.19.47l-.4,3.75a10.66,10.66,0,0,0-3.66-.53c-3,0-4.84,1.79-4.84,4.84s2,4.82,4.94,4.82a9.32,9.32,0,0,0,3.69-.6Z"/><path d="M170.28,12H159.46V18.3h-4.12V1.82h4.12V8.1h10.82V1.82h4.12V18.3h-4.12Z"/><path d="M185.24,1.49C190.9,1.49,195,4.42,195,10c0,5.79-4.4,8.65-9.76,8.65s-9.81-2.9-9.81-8.63C175.41,4.6,179.43,1.49,185.24,1.49Zm-.06,13.68c3.23,0,5.56-1.65,5.56-5.27,0-3.3-2.33-4.95-5.54-4.95s-5.54,1.61-5.54,5.07S182,15.17,185.18,15.17Z"/><path d="M205.53,1.49c5.67,0,9.75,2.93,9.75,8.49,0,5.79-4.41,8.65-9.77,8.65s-9.8-2.9-9.8-8.63C195.71,4.6,199.72,1.49,205.53,1.49Zm-.06,13.68c3.24,0,5.56-1.65,5.56-5.27C211,6.6,208.71,5,205.49,5S200,6.56,200,10,202.28,15.17,205.47,15.17Z"/><path d="M216.41,1.82h4.12V14.39h12.76V18.3H216.41Z"/><path d="M115.29,29h18v54.9H165.6V101H115.29Z" style="fill:#e42a1d"/><path d="M217.44,87.22H191.07L186.12,101H167l28.89-72h18.54l27.09,72H221.94ZM196.29,72.55h16.47l-7.74-24Z" style="fill:#e42a1d"/><path d="M267.21,50.5h-4.5V101h-18V29H270l47.61,45.45h4.5V29h18v72H318.33Z" style="fill:#e42a1d"/><path d="M386.73,58.69h34.11V97.48c-5.58,2.7-17.1,5-28.62,5-28.17,0-45.72-14-45.72-37.35,0-22,16.47-37.53,46.62-37.53,11.79,0,22.5,1.89,28.26,4.14l-1.44,15.66c-7.29-2.7-15.3-4-27-4C373.86,43.39,365,51,365,64.63c0,14.22,9.09,22.05,27.45,22.05,3.24,0,6.93-.18,10.71-.54V74H386.73Z" style="fill:#e42a1d"/></svg>